<?xml version="1.0" standalone="no"?>
<!DOCTYPE svg PUBLIC "-//W3C//DTD SVG 20010904//EN"
 "http://www.w3.org/TR/2001/REC-SVG-20010904/DTD/svg10.dtd">
<svg version="1.0" xmlns="http://www.w3.org/2000/svg"
 width="512.000000pt" height="512.000000pt" viewBox="0 0 512.000000 512.000000"
 preserveAspectRatio="xMidYMid meet">
<metadata>
Created by potrace 1.14, written by Peter Selinger 2001-2017
</metadata>
<g transform="translate(0.000000,512.000000) scale(0.100000,-0.100000)"
fill="#000000" stroke="none">
<path d="M0 2560 l0 -2560 2560 0 2560 0 0 2560 0 2560 -2560 0 -2560 0 0
-2560z m2083 1483 c-7 -2 -19 -2 -25 0 -7 3 -2 5 12 5 14 0 19 -2 13 -5z m250
0 c-7 -2 -19 -2 -25 0 -7 3 -2 5 12 5 14 0 19 -2 13 -5z m-296 -9 c-3 -3 -12
-4 -19 -1 -8 3 -5 6 6 6 11 1 17 -2 13 -5z m-287 -128 c0 -2 -8 -10 -17 -17
-16 -13 -17 -12 -4 4 13 16 21 21 21 13z m395 -465 c36 -16 204 -154 220 -181
4 -7 -63 -10 -207 -10 -117 0 -256 -3 -309 -6 -65 -5 -98 -3 -103 4 -7 12 100
122 156 159 81 54 172 67 243 34z m-552 -199 c70 -1 127 -5 127 -8 0 -2 -25
-35 -56 -72 -66 -78 -104 -97 -214 -107 -142 -12 -292 27 -428 112 -90 57
-118 65 -55 17 109 -84 256 -163 387 -210 70 -24 77 -29 60 -41 -25 -18 -76
-26 -138 -21 -51 4 -123 40 -196 99 l-26 20 -54 -22 c-30 -12 -74 -30 -97 -40
-24 -11 -48 -19 -55 -18 -8 0 -7 3 2 6 8 3 52 23 98 44 83 38 96 55 66 80 -9
7 -34 40 -57 74 -22 33 -44 62 -49 63 -4 2 -8 8 -8 13 0 5 109 9 259 9 143 0
266 3 275 6 9 3 16 16 17 28 1 19 2 18 8 -4 7 -25 8 -25 134 -28z m2527 -6 c0
-2 -20 -14 -45 -26 -24 -12 -66 -46 -94 -75 -43 -48 -69 -90 -168 -274 -58
-108 -133 -190 -199 -217 -98 -41 -189 13 -269 161 -55 100 -89 140 -141 165
-45 22 -94 24 -164 5 -207 -55 -329 -20 -527 152 -100 86 -103 89 -103 102 0
8 254 11 855 11 470 0 855 -2 855 -4z m-3300 -300 c0 -2 -9 -6 -20 -9 -11 -3
-18 -1 -14 4 5 9 34 13 34 5z m-50 -20 c0 -2 -9 -6 -20 -9 -11 -3 -18 -1 -14
4 5 9 34 13 34 5z m-83 -32 c-3 -3 -12 -4 -19 -1 -8 3 -5 6 6 6 11 1 17 -2 13
-5z m898 -1046 c47 -9 68 -19 98 -49 34 -34 37 -41 37 -94 0 -53 -3 -60 -38
-96 -25 -24 -56 -43 -85 -51 l-47 -12 51 -13 c98 -25 142 -78 142 -169 0 -67
-26 -112 -84 -144 -42 -24 -52 -25 -219 -26 -96 -1 -158 0 -138 3 29 3 39 10
43 26 3 12 4 155 3 317 l-3 295 -25 3 c-36 4 -52 11 -47 19 7 12 242 5 312 -9z
m475 12 c0 -5 -11 -10 -24 -10 -56 0 -57 -5 -54 -328 l3 -297 100 1 c146 1
181 20 199 107 12 55 26 26 26 -55 l0 -83 -242 3 c-134 2 -247 8 -253 13 -5 5
3 9 22 9 17 0 36 6 42 14 8 9 11 100 9 312 l-3 299 -30 3 c-16 2 -34 8 -39 13
-6 5 39 9 117 9 78 0 127 -4 127 -10z m517 -5 c-2 -5 -17 -12 -33 -15 l-29 -5
-3 -304 c-1 -177 2 -309 7 -314 5 -5 23 -12 41 -16 17 -3 -25 -6 -94 -6 -70 0
-126 3 -126 8 0 4 10 7 23 7 48 0 47 -3 45 326 l-3 309 -32 3 c-18 2 -33 8
-33 13 0 7 44 9 120 7 74 -2 119 -7 117 -13z m147 4 c22 1 43 4 47 7 6 3 138
-191 289 -425 l35 -54 3 219 c1 120 0 224 -2 231 -3 7 -21 13 -41 13 -19 0
-35 5 -35 10 0 6 38 10 95 10 57 0 95 -4 95 -10 0 -5 -18 -10 -40 -10 l-40 0
0 -330 c0 -181 -4 -330 -9 -330 -9 0 -52 63 -243 359 l-138 213 0 -270 c0
-296 -3 -282 61 -282 16 0 29 -4 29 -9 0 -5 -47 -9 -105 -9 -58 0 -105 4 -105
9 0 5 18 9 39 9 26 0 41 5 45 16 10 27 7 527 -5 566 -10 37 -16 42 -73 50 -11
2 -21 9 -24 17 -3 10 5 12 39 6 24 -5 62 -7 83 -6z m765 -14 c0 -5 -7 -9 -15
-7 -7 2 -23 -2 -34 -8 -18 -10 -20 -21 -20 -135 0 -69 4 -125 8 -125 4 0 63
56 131 124 120 121 137 151 86 144 -13 -2 -25 2 -27 7 -2 6 35 11 95 13 62 2
97 -1 97 -8 0 -5 -15 -10 -32 -10 -28 0 -49 -16 -155 -122 -68 -68 -123 -127
-123 -131 0 -5 31 -43 68 -85 38 -43 108 -125 156 -184 74 -92 92 -108 116
-108 16 0 32 -4 35 -10 4 -6 -42 -10 -132 -9 -104 1 -130 3 -105 10 17 5 32
15 32 22 0 13 -225 290 -240 295 -6 2 -10 -52 -10 -140 0 -152 4 -168 46 -168
13 0 26 -4 29 -10 4 -6 -39 -10 -122 -9 -70 1 -112 4 -93 8 l35 6 0 315 0 315
-33 3 c-18 2 -30 8 -26 13 8 13 234 7 233 -6z"/>
<path d="M1450 1690 l0 -140 45 0 c35 0 52 6 77 29 30 26 33 35 36 100 7 118
-18 151 -114 151 l-44 0 0 -140z"/>
<path d="M1450 1370 l0 -160 48 0 c90 0 142 57 142 158 0 102 -36 143 -137
156 l-53 7 0 -161z"/>
</g>
</svg>
